<?xml version="1.0" encoding="iso-8859-1"?>
<!-- Generator: Adobe Illustrator 19.0.0, SVG Export Plug-In . SVG Version: 6.00 Build 0)  -->
<svg version="1.1" id="Capa_1" xmlns="http://www.w3.org/2000/svg" xmlns:xlink="http://www.w3.org/1999/xlink" x="0px" y="0px"
	 viewBox="0 0 512 512" style="enable-background:new 0 0 512 512;" xml:space="preserve">
<rect x="10" y="68.27" style="fill:#397BB7;" width="492" height="375.47"/>
<polygon style="fill:#79DBF2;" points="502,108.942 398.089,187.245 502,187.245 502,324.755 350.917,324.755 502,438.609 
	502,443.734 449.428,443.734 324.754,349.783 324.754,443.734 187.246,443.734 187.246,346.14 57.735,443.734 10,443.734 
	10,434.967 156.245,324.755 10,324.755 10,187.245 109.063,187.245 10,112.595 10,68.266 10.553,68.266 168.438,187.245 
	187.246,187.245 187.246,68.266 324.754,68.266 324.754,187.245 338.724,187.245 496.61,68.266 502,68.266 "/>
<g>
	<polygon style="fill:#A82C44;" points="187.246,187.245 187.246,159.442 66.255,68.266 10.553,68.266 168.438,187.245 	"/>
	<polygon style="fill:#A82C44;" points="324.754,187.245 338.724,187.245 496.61,68.266 440.907,68.266 324.754,155.789 	"/>
	<polygon style="fill:#A82C44;" points="350.917,324.755 502,438.609 502,396.64 406.619,324.755 	"/>
	<polygon style="fill:#A82C44;" points="100.543,324.755 10,392.987 10,434.967 156.245,324.755 	"/>
</g>
<polygon style="fill:#E8344A;" points="502,222.787 502,289.213 289.212,289.213 289.212,443.734 222.788,443.734 222.788,289.213 
	10,289.213 10,222.787 222.788,222.787 222.788,68.266 289.212,68.266 289.212,222.787 "/>
<path d="M457.14,266c-2.64,0-5.21-1.07-7.079-2.93c-0.46-0.46-0.88-0.97-1.24-1.52c-0.36-0.54-0.67-1.12-0.92-1.73
	c-0.25-0.6-0.44-1.23-0.57-1.87c-0.13-0.64-0.191-1.3-0.191-1.95s0.06-1.31,0.191-1.95c0.13-0.64,0.32-1.27,0.57-1.87
	c0.25-0.61,0.56-1.19,0.92-1.73c0.36-0.55,0.78-1.06,1.24-1.52s0.98-0.88,1.52-1.24c0.55-0.36,1.13-0.67,1.73-0.92
	s1.23-0.45,1.87-0.57c1.29-0.26,2.62-0.26,3.91,0c0.64,0.12,1.27,0.32,1.87,0.57s1.18,0.56,1.73,0.92c0.54,0.36,1.06,0.78,1.52,1.24
	s0.88,0.97,1.24,1.52c0.36,0.54,0.67,1.12,0.92,1.73c0.25,0.6,0.44,1.23,0.57,1.87s0.19,1.3,0.19,1.95s-0.06,1.31-0.19,1.95
	s-0.32,1.27-0.57,1.87c-0.25,0.61-0.56,1.19-0.92,1.73c-0.36,0.55-0.78,1.06-1.24,1.52C462.34,264.93,459.77,266,457.14,266z"/>
<path d="M502,58.266h-5.391h-55.702H324.754h-35.542h-66.424h-35.542H66.255H10.553H10c-5.523,0-10,4.477-10,10v44.33v74.649v35.542
	v66.426v35.543v68.232v41.98v8.767c0,5.523,4.477,10,10,10h47.735h129.511h35.542h66.424h35.542h124.674H502c5.523,0,10-4.477,10-10
	v-5.124v-41.97v-71.885v-35.543v-66.426v-35.542v-78.303V68.266C512,62.743,507.523,58.266,502,58.266z M380.803,334.755h22.47
	L492,401.626v16.927L380.803,334.755z M436.502,334.755H492v41.827L436.502,334.755z M492,177.245h-64.024L492,128.999V177.245z
	 M466.723,78.266l-131.345,98.979h-0.624v-16.47l109.499-82.509C444.253,78.266,466.723,78.266,466.723,78.266z M334.754,78.266
	h76.265l-76.265,57.467L334.754,78.266L334.754,78.266z M314.754,155.789v31.456c0,5.523,4.477,10,10,10h13.97
	c2.171,0,4.284-0.707,6.018-2.014L492,84.261v19.695l-99.929,75.302c-3.435,2.588-4.83,7.081-3.465,11.159s5.183,6.827,9.483,6.827
	H492v15.542H299.212V78.266h15.542V155.789z M212.788,78.266v134.521H20v-15.542h89.063c4.3,0,8.119-2.749,9.483-6.827
	s-0.031-8.571-3.465-11.159L20,107.609V87.906L162.42,195.23c1.734,1.307,3.847,2.014,6.018,2.014h18.808c5.523,0,10-4.477,10-10
	v-27.802V78.266H212.788z M20,414.909v-16.936l83.889-63.218h22.471L20,414.909z M20,372.93v-38.174h50.657L20,372.93z M20,132.652
	l59.177,44.593H20V132.652z M177.246,139.385L96.141,78.266h81.105V139.385z M62.909,78.266l114.337,86.163v12.816h-5.461
	L40.439,78.266H62.909z M177.246,433.734H87.621l89.625-67.537V433.734z M191.708,337.191c-3.393-1.692-7.451-1.319-10.48,0.963
	l-126.839,95.58H28.252l134.012-100.993c3.434-2.588,4.829-7.082,3.465-11.16c-0.085-0.255-0.18-0.504-0.284-0.749
	c-1.56-3.662-5.168-6.078-9.199-6.078h-55.703H20v-15.543h192.788v134.522h-15.542V346.14
	C197.246,342.348,195.102,338.883,191.708,337.191z M232.788,433.734V289.213c0-5.523-4.477-10-10-10H20V266h396.816
	c5.523,0,10-4.477,10-10c0-5.523-4.477-10-10-10H20v-13.213h202.788c5.523,0,10-4.477,10-10V78.266h46.424v144.521
	c0,5.523,4.477,10,10,10H492v46.426H289.212c-5.523,0-10,4.477-10,10v144.522L232.788,433.734L232.788,433.734z M334.754,433.734
	V369.84l84.788,63.894H334.754z M330.772,341.797c-3.028-2.282-7.087-2.655-10.48-0.963c-3.394,1.692-5.538,5.157-5.538,8.949
	v83.951h-15.542V299.213H492v15.543h-85.381h-55.702c-4.3,0-8.119,2.749-9.483,6.827s0.031,8.572,3.465,11.16l134.015,100.993
	h-26.14L330.772,341.797z"/>
<g>
</g>
<g>
</g>
<g>
</g>
<g>
</g>
<g>
</g>
<g>
</g>
<g>
</g>
<g>
</g>
<g>
</g>
<g>
</g>
<g>
</g>
<g>
</g>
<g>
</g>
<g>
</g>
<g>
</g>
</svg>
